<svg width="301" height="87" viewBox="0 0 301 87" fill="none" xmlns="http://www.w3.org/2000/svg">
<path d="M83 48V51H4V48H83ZM84 47V22C84 21.4477 83.5523 21 83 21H4C3.44772 21 3 21.4477 3 22V47C3 47.5523 3.44772 48 4 48V51L3.79395 50.9951C1.68056 50.8879 0 49.14 0 47V22C0 19.7909 1.79086 18 4 18H83C85.2091 18 87 19.7909 87 22V47C87 49.2091 85.2091 51 83 51V48C83.5523 48 84 47.5523 84 47Z" fill="#19207C"/>
<path d="M10.5 8V59C10.5 59.8284 11.1716 60.5 12 60.5C12.8284 60.5 13.5 59.8284 13.5 59V8C13.5 7.72386 13.7239 7.5 14 7.5H42C42.8284 7.5 43.5 6.82843 43.5 6C43.5 5.17157 42.8284 4.5 42 4.5H14C12.067 4.5 10.5 6.067 10.5 8Z" fill="#19207C"/>
<path d="M50 35.5C50 34.1193 48.8807 33 47.5 33C46.1193 33 45 34.1193 45 35.5C45 36.8807 46.1193 38 47.5 38V41C44.4624 41 42 38.5376 42 35.5C42 32.4624 44.4624 30 47.5 30C50.5376 30 53 32.4624 53 35.5C53 38.5376 50.5376 41 47.5 41V38C48.8807 38 50 36.8807 50 35.5Z" fill="#19207C"/>
<path d="M50 5.5C50 4.11929 48.8807 3 47.5 3C46.1193 3 45 4.11929 45 5.5C45 6.88071 46.1193 8 47.5 8V11C44.4624 11 42 8.53757 42 5.5C42 2.46243 44.4624 0 47.5 0C50.5376 0 53 2.46243 53 5.5C53 8.53757 50.5376 11 47.5 11V8C48.8807 8 50 6.88071 50 5.5Z" fill="#19207C"/>
<path d="M48.5 76C48.5 76.8284 47.8284 77.5 47 77.5C46.1716 77.5 45.5 76.8284 45.5 76L45.5 40C45.5 39.1716 46.1716 38.5 47 38.5C47.8284 38.5 48.5 39.1716 48.5 40L48.5 76Z" fill="#19207C"/>
<path d="M50 81.5C50 80.1193 48.8807 79 47.5 79C46.1193 79 45 80.1193 45 81.5C45 82.8807 46.1193 84 47.5 84V87C44.4624 87 42 84.5376 42 81.5C42 78.4624 44.4624 76 47.5 76C50.5376 76 53 78.4624 53 81.5C53 84.5376 50.5376 87 47.5 87V84C48.8807 84 50 82.8807 50 81.5Z" fill="#19207C"/>
<path d="M78 69.5C78 68.1193 76.8807 67 75.5 67C74.1193 67 73 68.1193 73 69.5C73 70.8807 74.1193 72 75.5 72V75C72.4624 75 70 72.5376 70 69.5C70 66.4624 72.4624 64 75.5 64C78.5376 64 81 66.4624 81 69.5C81 72.5376 78.5376 75 75.5 75V72C76.8807 72 78 70.8807 78 69.5Z" fill="#19207C"/>
<path d="M16.1823 70.0608C16.7679 70.6466 16.768 71.5964 16.1823 72.1821C15.5965 72.7679 14.6468 72.7678 14.061 72.1821L9.0608 67.182C8.47501 66.5962 8.47501 65.6464 9.0608 65.0607C9.64659 64.4749 10.5963 64.4749 11.1821 65.0607L16.1823 70.0608Z" fill="#19207C"/>
<path d="M11.182 72.1892C10.5962 72.7749 9.6464 72.775 9.06066 72.1892C8.47493 71.6035 8.47503 70.6537 9.06066 70.0679L14.0608 65.0678C14.6466 64.482 15.5964 64.482 16.1821 65.0678C16.7679 65.6535 16.7679 66.6033 16.1821 67.1891L11.182 72.1892Z" fill="#19207C"/>
<path fill-rule="evenodd" clip-rule="evenodd" d="M25.6214 27.4392C26.2071 26.8535 27.1567 26.8535 27.7424 27.4392C28.3279 28.0251 28.3281 28.9747 27.7424 29.5603L22.7425 34.5603C22.1567 35.1459 21.2061 35.146 20.6204 34.5603C20.5961 34.536 20.5743 34.5096 20.5521 34.4841L18.4388 32.3709C17.8531 31.7851 17.8531 30.8355 18.4388 30.2498C19.0245 29.664 19.9741 29.6641 20.5599 30.2498L21.6849 31.3738L25.6214 27.4392Z" fill="#19207C"/>
<path d="M76 42.5C76.8284 42.5 77.5 43.1716 77.5 44C77.5 53.1127 70.1127 60.5 61 60.5H49C48.1716 60.5 47.5 59.8284 47.5 59C47.5 58.1716 48.1716 57.5 49 57.5H61C67.9488 57.5 73.6708 52.2499 74.417 45.5H61.8867C61.0583 45.5 60.3867 44.8284 60.3867 44C60.3867 43.1716 61.0583 42.5 61.8867 42.5H76Z" fill="#19207C"/>
<path d="M289.817 57.48C287.924 57.48 286.284 57.1867 284.897 56.6C283.537 55.9867 282.457 55.16 281.657 54.12C280.884 53.08 280.444 51.9067 280.337 50.6H286.297C286.404 51.0533 286.59 51.4667 286.857 51.84C287.15 52.1867 287.537 52.4667 288.017 52.68C288.524 52.8667 289.084 52.96 289.697 52.96C290.364 52.96 290.897 52.88 291.297 52.72C291.724 52.5333 292.044 52.2933 292.257 52C292.47 51.7067 292.577 51.4 292.577 51.08C292.577 50.5733 292.417 50.1867 292.097 49.92C291.804 49.6533 291.364 49.44 290.777 49.28C290.19 49.0933 289.484 48.92 288.657 48.76C287.697 48.5467 286.737 48.3067 285.777 48.04C284.844 47.7467 284.004 47.3867 283.257 46.96C282.537 46.5333 281.95 45.9867 281.497 45.32C281.07 44.6267 280.857 43.7867 280.857 42.8C280.857 41.6 281.19 40.52 281.857 39.56C282.524 38.5733 283.484 37.8 284.737 37.24C285.99 36.6533 287.51 36.36 289.297 36.36C291.83 36.36 293.817 36.92 295.257 38.04C296.697 39.16 297.55 40.6667 297.817 42.56H292.217C292.057 42.0267 291.724 41.6267 291.217 41.36C290.71 41.0667 290.07 40.92 289.297 40.92C288.417 40.92 287.75 41.0667 287.297 41.36C286.844 41.6533 286.617 42.04 286.617 42.52C286.617 42.84 286.764 43.1333 287.057 43.4C287.377 43.64 287.83 43.8533 288.417 44.04C289.004 44.2267 289.724 44.4133 290.577 44.6C292.204 44.9467 293.604 45.32 294.777 45.72C295.977 46.12 296.91 46.7067 297.577 47.48C298.244 48.2267 298.564 49.32 298.537 50.76C298.564 52.0667 298.217 53.2267 297.497 54.24C296.804 55.2533 295.804 56.0533 294.497 56.64C293.19 57.2 291.63 57.48 289.817 57.48Z" fill="#19207C"/>
<path d="M268.045 57.48C265.965 57.48 264.138 57.0533 262.565 56.2C260.992 55.32 259.752 54.1067 258.845 52.56C257.965 50.9867 257.525 49.1867 257.525 47.16C257.525 45.08 257.965 43.2267 258.845 41.6C259.725 39.9733 260.952 38.6933 262.525 37.76C264.098 36.8267 265.925 36.36 268.005 36.36C270.032 36.36 271.805 36.8 273.325 37.68C274.845 38.56 276.032 39.76 276.885 41.28C277.765 42.7733 278.205 44.5067 278.205 46.48C278.205 46.7467 278.192 47.0533 278.165 47.4C278.165 47.72 278.138 48.0533 278.085 48.4H261.805V44.92H272.085C272.032 43.8 271.618 42.9067 270.845 42.24C270.098 41.5467 269.165 41.2 268.045 41.2C267.192 41.2 266.418 41.4 265.725 41.8C265.032 42.2 264.472 42.8 264.045 43.6C263.645 44.4 263.445 45.4133 263.445 46.64V47.84C263.445 48.7733 263.618 49.6 263.965 50.32C264.338 51.04 264.858 51.6 265.525 52C266.218 52.4 267.032 52.6 267.965 52.6C268.845 52.6 269.565 52.4267 270.125 52.08C270.712 51.7067 271.165 51.24 271.485 50.68H277.605C277.232 51.96 276.592 53.12 275.685 54.16C274.778 55.1733 273.672 55.9867 272.365 56.6C271.058 57.1867 269.618 57.48 268.045 57.48Z" fill="#19207C"/>
<path d="M248.114 57V28.2H254.114V57H248.114Z" fill="#19207C"/>
<path d="M231.758 57.48C230.078 57.48 228.651 57.1333 227.478 56.44C226.331 55.7467 225.451 54.7333 224.838 53.4C224.251 52.04 223.958 50.3867 223.958 48.44V36.84H229.958V47.84C229.958 49.3333 230.264 50.48 230.878 51.28C231.491 52.0533 232.478 52.44 233.838 52.44C234.664 52.44 235.398 52.2533 236.038 51.88C236.704 51.5067 237.211 50.96 237.558 50.24C237.931 49.52 238.118 48.64 238.118 47.6V36.84H244.118V57H238.878L238.398 53.8C237.811 54.8933 236.958 55.7867 235.838 56.48C234.718 57.1467 233.358 57.48 231.758 57.48Z" fill="#19207C"/>
<path d="M199.813 57V29H210.693C212.959 29 214.839 29.4 216.333 30.2C217.853 30.9733 218.973 32.0133 219.693 33.32C220.439 34.6267 220.813 36.08 220.813 37.68C220.813 39.1733 220.453 40.5733 219.733 41.88C219.039 43.1867 217.946 44.24 216.453 45.04C214.959 45.84 213.026 46.24 210.653 46.24H205.813V57H199.813ZM214.253 57L208.613 44.76H215.053L221.053 57H214.253ZM205.813 41.92H210.333C211.826 41.92 212.919 41.56 213.613 40.84C214.333 40.12 214.693 39.1467 214.693 37.92C214.693 36.72 214.333 35.7733 213.613 35.08C212.919 34.36 211.826 34 210.333 34H205.813V41.92Z" fill="#19207C"/>
<path d="M183.369 57.48C181.583 57.48 179.956 57.0267 178.489 56.12C177.049 55.2133 175.903 53.9733 175.049 52.4C174.223 50.8 173.809 48.9867 173.809 46.96C173.809 44.9067 174.236 43.0933 175.089 41.52C175.943 39.92 177.103 38.6667 178.569 37.76C180.063 36.8267 181.716 36.36 183.529 36.36C184.916 36.36 186.129 36.6133 187.169 37.12C188.209 37.6 189.063 38.3067 189.729 39.24V28.2H195.729V57H190.409L189.729 54.4C189.329 54.96 188.836 55.48 188.249 55.96C187.689 56.4133 187.009 56.7733 186.209 57.04C185.409 57.3333 184.463 57.48 183.369 57.48ZM184.929 52.24C185.916 52.24 186.783 52.0133 187.529 51.56C188.303 51.1067 188.889 50.48 189.289 49.68C189.716 48.88 189.929 47.96 189.929 46.92C189.929 45.88 189.716 44.96 189.289 44.16C188.889 43.36 188.303 42.7333 187.529 42.28C186.783 41.8267 185.916 41.6 184.929 41.6C183.969 41.6 183.103 41.8267 182.329 42.28C181.583 42.7333 180.996 43.36 180.569 44.16C180.143 44.96 179.929 45.8667 179.929 46.88C179.929 47.92 180.143 48.8533 180.569 49.68C180.996 50.48 181.583 51.1067 182.329 51.56C183.103 52.0133 183.969 52.24 184.929 52.24Z" fill="#19207C"/>
<path d="M164.398 57V28.2H170.398V57H164.398Z" fill="#19207C"/>
<path d="M151.026 57.48C148.946 57.48 147.12 57.0533 145.546 56.2C143.973 55.32 142.733 54.1067 141.826 52.56C140.946 50.9867 140.506 49.1867 140.506 47.16C140.506 45.08 140.946 43.2267 141.826 41.6C142.706 39.9733 143.933 38.6933 145.506 37.76C147.08 36.8267 148.906 36.36 150.986 36.36C153.013 36.36 154.786 36.8 156.306 37.68C157.826 38.56 159.013 39.76 159.866 41.28C160.746 42.7733 161.186 44.5067 161.186 46.48C161.186 46.7467 161.173 47.0533 161.146 47.4C161.146 47.72 161.12 48.0533 161.066 48.4H144.786V44.92H155.066C155.013 43.8 154.6 42.9067 153.826 42.24C153.08 41.5467 152.146 41.2 151.026 41.2C150.173 41.2 149.4 41.4 148.706 41.8C148.013 42.2 147.453 42.8 147.026 43.6C146.626 44.4 146.426 45.4133 146.426 46.64V47.84C146.426 48.7733 146.6 49.6 146.946 50.32C147.32 51.04 147.84 51.6 148.506 52C149.2 52.4 150.013 52.6 150.946 52.6C151.826 52.6 152.546 52.4267 153.106 52.08C153.693 51.7067 154.146 51.24 154.466 50.68H160.586C160.213 51.96 159.573 53.12 158.666 54.16C157.76 55.1733 156.653 55.9867 155.346 56.6C154.04 57.1867 152.6 57.48 151.026 57.48Z" fill="#19207C"/>
<path d="M131.019 57V36.84H137.019V57H131.019ZM134.019 34.52C132.952 34.52 132.086 34.2133 131.419 33.6C130.752 32.9867 130.419 32.2133 130.419 31.28C130.419 30.32 130.752 29.5333 131.419 28.92C132.086 28.3067 132.952 28 134.019 28C135.112 28 135.992 28.3067 136.659 28.92C137.352 29.5333 137.699 30.32 137.699 31.28C137.699 32.2133 137.352 32.9867 136.659 33.6C135.992 34.2133 135.112 34.52 134.019 34.52Z" fill="#19207C"/>
<path d="M109.68 57V29H128.28V33.84H115.68V40.64H125.6V45.32H115.68V57H109.68Z" fill="#19207C"/>
<g opacity="0.6" style="mix-blend-mode:multiply">
<path d="M10.7 71C8.49081 71 6.69995 69.2091 6.69995 67V5C6.69995 2.79086 8.49081 1 10.7 1H49.2C51.4091 1 53.2 2.79086 53.2 5V9.1C53.2 11.3091 51.4091 13.1 49.2 13.1H25.7C23.4908 13.1 21.7 14.8909 21.7 17.1V26.1C21.7 28.3091 23.4908 30.1 25.7 30.1H42.5C44.7091 30.1 46.5 31.8909 46.5 34.1V37.8C46.5 40.0091 44.7091 41.8 42.5 41.8H25.7C23.4908 41.8 21.7 43.5909 21.7 45.8V67C21.7 69.2091 19.9091 71 17.7 71H10.7Z" fill="#5ED5BE"/>
</g>
<g opacity="0.6" style="mix-blend-mode:multiply">
<path d="M61.8154 26.5C66.6318 26.5 70.6266 27.3499 73.7998 29.0498C77.0298 30.6931 79.4104 32.903 80.9404 35.6797C82.5271 38.4564 83.3203 41.5453 83.3203 44.9453C83.3203 48.1185 82.5553 51.0936 81.0254 53.8701C79.5521 56.6468 77.228 58.885 74.0547 60.585C73.3655 60.9541 72.6309 61.2794 71.8535 61.5684L81.0059 80.2393C82.3086 82.8969 80.3738 86 77.4141 86H71.9414C70.3803 86 68.9619 85.0916 68.3086 83.6738L58.8438 63.1348H55.4453C53.2363 63.1348 51.4454 64.9257 51.4453 67.1348V82C51.4453 84.209 49.6543 85.9998 47.4453 86H42.6953C40.4862 86 38.6953 84.2091 38.6953 82V30.5C38.6953 28.2909 40.4862 26.5 42.6953 26.5H61.8154ZM55.4453 37.125C53.2362 37.125 51.4453 38.9159 51.4453 41.125V49.9551C51.4454 52.1642 53.2362 53.9551 55.4453 53.9551H61.0498C64.2229 53.9551 66.5462 53.1899 68.0195 51.6602C69.5495 50.1302 70.3154 48.0617 70.3154 45.4551C70.3154 42.9051 69.5495 40.8933 68.0195 39.4199C66.5462 37.8901 64.2229 37.125 61.0498 37.125H55.4453Z" fill="#8F97FF"/>
</g>
</svg>
