<svg width="301" height="89" viewBox="0 0 301 89" fill="none" xmlns="http://www.w3.org/2000/svg">
<path d="M10.7 70C8.49081 70 6.69995 68.2091 6.69995 66V4C6.69995 1.79086 8.49081 0 10.7 0H49.2C51.4091 0 53.2 1.79086 53.2 4V8.1C53.2 10.3091 51.4091 12.1 49.2 12.1H25.7C23.4908 12.1 21.7 13.8909 21.7 16.1V25.1C21.7 27.3091 23.4908 29.1 25.7 29.1H42.5C44.7091 29.1 46.5 30.8909 46.5 33.1V36.8C46.5 39.0091 44.7091 40.8 42.5 40.8H25.7C23.4908 40.8 21.7 42.5909 21.7 44.8V66C21.7 68.2091 19.9091 70 17.7 70H10.7Z" fill="#5ED5BE"/>
<path fill-rule="evenodd" clip-rule="evenodd" d="M61.8154 29.5C66.6318 29.5 70.6266 30.3499 73.7998 32.0498C77.0298 33.6931 79.4104 35.9031 80.9404 38.6797C82.5271 41.4564 83.3203 44.5453 83.3203 47.9453C83.3203 51.1185 82.5553 54.0936 81.0254 56.8701C79.5521 59.6468 77.228 61.885 74.0547 63.585C73.3655 63.9541 72.6309 64.2794 71.8535 64.5684L81.0059 83.2393C82.3086 85.8968 80.3745 88.9997 77.415 89H71.9414C70.3803 89 68.9619 88.0917 68.3086 86.6738L58.8447 66.1348H55.4453C53.2363 66.1348 51.4454 67.9257 51.4453 70.1348V85C51.4453 87.2091 49.6543 88.9999 47.4453 89H42.6953C40.4862 89 38.6953 87.2091 38.6953 85V33.5C38.6953 31.2909 40.4862 29.5 42.6953 29.5H61.8154ZM55.4453 40.125C53.2362 40.125 51.4453 41.9159 51.4453 44.125V52.9551C51.4454 55.1642 53.2362 56.9551 55.4453 56.9551H61.0498C64.2231 56.9551 66.5472 56.1902 68.0205 54.6602C69.5504 53.1302 70.3154 51.0616 70.3154 48.4551C70.3154 45.9052 69.5504 43.8932 68.0205 42.4199C66.5472 40.8899 64.2231 40.125 61.0498 40.125H55.4453Z" fill="#8F97FF"/>
<path d="M83 50V53H4V50H83ZM84 49V24C84 23.4477 83.5523 23 83 23H4C3.44772 23 3 23.4477 3 24V49C3 49.5523 3.44772 50 4 50V53L3.79395 52.9951C1.68056 52.8879 0 51.14 0 49V24C0 21.7909 1.79086 20 4 20H83C85.2091 20 87 21.7909 87 24V49C87 51.2091 85.2091 53 83 53V50C83.5523 50 84 49.5523 84 49Z" fill="#F5F5F5"/>
<path d="M10.5 10V61C10.5 61.8284 11.1716 62.5 12 62.5C12.8284 62.5 13.5 61.8284 13.5 61V10C13.5 9.72386 13.7239 9.5 14 9.5H42C42.8284 9.5 43.5 8.82843 43.5 8C43.5 7.17157 42.8284 6.5 42 6.5H14C12.067 6.5 10.5 8.067 10.5 10Z" fill="#F5F5F5"/>
<path d="M50 37.5C50 36.1193 48.8807 35 47.5 35C46.1193 35 45 36.1193 45 37.5C45 38.8807 46.1193 40 47.5 40V43C44.4624 43 42 40.5376 42 37.5C42 34.4624 44.4624 32 47.5 32C50.5376 32 53 34.4624 53 37.5C53 40.5376 50.5376 43 47.5 43V40C48.8807 40 50 38.8807 50 37.5Z" fill="#F5F5F5"/>
<path d="M50 7.5C50 6.11929 48.8807 5 47.5 5C46.1193 5 45 6.11929 45 7.5C45 8.88071 46.1193 10 47.5 10V13C44.4624 13 42 10.5376 42 7.5C42 4.46243 44.4624 2 47.5 2C50.5376 2 53 4.46243 53 7.5C53 10.5376 50.5376 13 47.5 13V10C48.8807 10 50 8.88071 50 7.5Z" fill="#F5F5F5"/>
<path d="M48.5 78C48.5 78.8284 47.8284 79.5 47 79.5C46.1716 79.5 45.5 78.8284 45.5 78L45.5 42C45.5 41.1716 46.1716 40.5 47 40.5C47.8284 40.5 48.5 41.1716 48.5 42L48.5 78Z" fill="#F5F5F5"/>
<path d="M50 83.5C50 82.1193 48.8807 81 47.5 81C46.1193 81 45 82.1193 45 83.5C45 84.8807 46.1193 86 47.5 86V89C44.4624 89 42 86.5376 42 83.5C42 80.4624 44.4624 78 47.5 78C50.5376 78 53 80.4624 53 83.5C53 86.5376 50.5376 89 47.5 89V86C48.8807 86 50 84.8807 50 83.5Z" fill="#F5F5F5"/>
<path d="M78 71.5C78 70.1193 76.8807 69 75.5 69C74.1193 69 73 70.1193 73 71.5C73 72.8807 74.1193 74 75.5 74V77C72.4624 77 70 74.5376 70 71.5C70 68.4624 72.4624 66 75.5 66C78.5376 66 81 68.4624 81 71.5C81 74.5376 78.5376 77 75.5 77V74C76.8807 74 78 72.8807 78 71.5Z" fill="#F5F5F5"/>
<path d="M16.1823 72.0608C16.7679 72.6466 16.768 73.5964 16.1823 74.1821C15.5965 74.7679 14.6468 74.7678 14.061 74.1821L9.0608 69.182C8.47501 68.5962 8.47501 67.6464 9.0608 67.0607C9.64659 66.4749 10.5963 66.4749 11.1821 67.0607L16.1823 72.0608Z" fill="#F5F5F5"/>
<path d="M11.182 74.1892C10.5962 74.7749 9.6464 74.775 9.06066 74.1892C8.47493 73.6035 8.47503 72.6537 9.06066 72.0679L14.0608 67.0678C14.6466 66.482 15.5964 66.482 16.1821 67.0678C16.7679 67.6535 16.7679 68.6033 16.1821 69.1891L11.182 74.1892Z" fill="#F5F5F5"/>
<path fill-rule="evenodd" clip-rule="evenodd" d="M25.6214 29.4392C26.2071 28.8535 27.1567 28.8535 27.7424 29.4392C28.3279 30.0251 28.3281 30.9747 27.7424 31.5603L22.7425 36.5603C22.1567 37.1459 21.2061 37.146 20.6204 36.5603C20.5961 36.536 20.5743 36.5096 20.5521 36.4841L18.4388 34.3709C17.8531 33.7851 17.8531 32.8355 18.4388 32.2498C19.0245 31.664 19.9741 31.6641 20.5599 32.2498L21.6849 33.3738L25.6214 29.4392Z" fill="#F5F5F5"/>
<path d="M76 44.5C76.8284 44.5 77.5 45.1716 77.5 46C77.5 55.1127 70.1127 62.5 61 62.5H49C48.1716 62.5 47.5 61.8284 47.5 61C47.5 60.1716 48.1716 59.5 49 59.5H61C67.9488 59.5 73.6708 54.2499 74.417 47.5H61.8867C61.0583 47.5 60.3867 46.8284 60.3867 46C60.3867 45.1716 61.0583 44.5 61.8867 44.5H76Z" fill="#F5F5F5"/>
<path d="M289.817 59.48C287.924 59.48 286.284 59.1867 284.897 58.6C283.537 57.9867 282.457 57.16 281.657 56.12C280.884 55.08 280.444 53.9067 280.337 52.6H286.297C286.404 53.0533 286.59 53.4667 286.857 53.84C287.15 54.1867 287.537 54.4667 288.017 54.68C288.524 54.8667 289.084 54.96 289.697 54.96C290.364 54.96 290.897 54.88 291.297 54.72C291.724 54.5333 292.044 54.2933 292.257 54C292.47 53.7067 292.577 53.4 292.577 53.08C292.577 52.5733 292.417 52.1867 292.097 51.92C291.804 51.6533 291.364 51.44 290.777 51.28C290.19 51.0933 289.484 50.92 288.657 50.76C287.697 50.5467 286.737 50.3067 285.777 50.04C284.844 49.7467 284.004 49.3867 283.257 48.96C282.537 48.5333 281.95 47.9867 281.497 47.32C281.07 46.6267 280.857 45.7867 280.857 44.8C280.857 43.6 281.19 42.52 281.857 41.56C282.524 40.5733 283.484 39.8 284.737 39.24C285.99 38.6533 287.51 38.36 289.297 38.36C291.83 38.36 293.817 38.92 295.257 40.04C296.697 41.16 297.55 42.6667 297.817 44.56H292.217C292.057 44.0267 291.724 43.6267 291.217 43.36C290.71 43.0667 290.07 42.92 289.297 42.92C288.417 42.92 287.75 43.0667 287.297 43.36C286.844 43.6533 286.617 44.04 286.617 44.52C286.617 44.84 286.764 45.1333 287.057 45.4C287.377 45.64 287.83 45.8533 288.417 46.04C289.004 46.2267 289.724 46.4133 290.577 46.6C292.204 46.9467 293.604 47.32 294.777 47.72C295.977 48.12 296.91 48.7067 297.577 49.48C298.244 50.2267 298.564 51.32 298.537 52.76C298.564 54.0667 298.217 55.2267 297.497 56.24C296.804 57.2533 295.804 58.0533 294.497 58.64C293.19 59.2 291.63 59.48 289.817 59.48Z" fill="white"/>
<path d="M268.045 59.48C265.965 59.48 264.138 59.0533 262.565 58.2C260.992 57.32 259.752 56.1067 258.845 54.56C257.965 52.9867 257.525 51.1867 257.525 49.16C257.525 47.08 257.965 45.2267 258.845 43.6C259.725 41.9733 260.952 40.6933 262.525 39.76C264.098 38.8267 265.925 38.36 268.005 38.36C270.032 38.36 271.805 38.8 273.325 39.68C274.845 40.56 276.032 41.76 276.885 43.28C277.765 44.7733 278.205 46.5067 278.205 48.48C278.205 48.7467 278.192 49.0533 278.165 49.4C278.165 49.72 278.138 50.0533 278.085 50.4H261.805V46.92H272.085C272.032 45.8 271.618 44.9067 270.845 44.24C270.098 43.5467 269.165 43.2 268.045 43.2C267.192 43.2 266.418 43.4 265.725 43.8C265.032 44.2 264.472 44.8 264.045 45.6C263.645 46.4 263.445 47.4133 263.445 48.64V49.84C263.445 50.7733 263.618 51.6 263.965 52.32C264.338 53.04 264.858 53.6 265.525 54C266.218 54.4 267.032 54.6 267.965 54.6C268.845 54.6 269.565 54.4267 270.125 54.08C270.712 53.7067 271.165 53.24 271.485 52.68H277.605C277.232 53.96 276.592 55.12 275.685 56.16C274.778 57.1733 273.672 57.9867 272.365 58.6C271.058 59.1867 269.618 59.48 268.045 59.48Z" fill="white"/>
<path d="M248.114 59V30.2H254.114V59H248.114Z" fill="white"/>
<path d="M231.758 59.48C230.078 59.48 228.651 59.1333 227.478 58.44C226.331 57.7467 225.451 56.7333 224.838 55.4C224.251 54.04 223.958 52.3867 223.958 50.44V38.84H229.958V49.84C229.958 51.3333 230.264 52.48 230.878 53.28C231.491 54.0533 232.478 54.44 233.838 54.44C234.664 54.44 235.398 54.2533 236.038 53.88C236.704 53.5067 237.211 52.96 237.558 52.24C237.931 51.52 238.118 50.64 238.118 49.6V38.84H244.118V59H238.878L238.398 55.8C237.811 56.8933 236.958 57.7867 235.838 58.48C234.718 59.1467 233.358 59.48 231.758 59.48Z" fill="white"/>
<path d="M199.813 59V31H210.693C212.959 31 214.839 31.4 216.333 32.2C217.853 32.9733 218.973 34.0133 219.693 35.32C220.439 36.6267 220.813 38.08 220.813 39.68C220.813 41.1733 220.453 42.5733 219.733 43.88C219.039 45.1867 217.946 46.24 216.453 47.04C214.959 47.84 213.026 48.24 210.653 48.24H205.813V59H199.813ZM214.253 59L208.613 46.76H215.053L221.053 59H214.253ZM205.813 43.92H210.333C211.826 43.92 212.919 43.56 213.613 42.84C214.333 42.12 214.693 41.1467 214.693 39.92C214.693 38.72 214.333 37.7733 213.613 37.08C212.919 36.36 211.826 36 210.333 36H205.813V43.92Z" fill="white"/>
<path d="M183.369 59.48C181.583 59.48 179.956 59.0267 178.489 58.12C177.049 57.2133 175.903 55.9733 175.049 54.4C174.223 52.8 173.809 50.9867 173.809 48.96C173.809 46.9067 174.236 45.0933 175.089 43.52C175.943 41.92 177.103 40.6667 178.569 39.76C180.063 38.8267 181.716 38.36 183.529 38.36C184.916 38.36 186.129 38.6133 187.169 39.12C188.209 39.6 189.063 40.3067 189.729 41.24V30.2H195.729V59H190.409L189.729 56.4C189.329 56.96 188.836 57.48 188.249 57.96C187.689 58.4133 187.009 58.7733 186.209 59.04C185.409 59.3333 184.463 59.48 183.369 59.48ZM184.929 54.24C185.916 54.24 186.783 54.0133 187.529 53.56C188.303 53.1067 188.889 52.48 189.289 51.68C189.716 50.88 189.929 49.96 189.929 48.92C189.929 47.88 189.716 46.96 189.289 46.16C188.889 45.36 188.303 44.7333 187.529 44.28C186.783 43.8267 185.916 43.6 184.929 43.6C183.969 43.6 183.103 43.8267 182.329 44.28C181.583 44.7333 180.996 45.36 180.569 46.16C180.143 46.96 179.929 47.8667 179.929 48.88C179.929 49.92 180.143 50.8533 180.569 51.68C180.996 52.48 181.583 53.1067 182.329 53.56C183.103 54.0133 183.969 54.24 184.929 54.24Z" fill="white"/>
<path d="M164.398 59V30.2H170.398V59H164.398Z" fill="white"/>
<path d="M151.026 59.48C148.946 59.48 147.12 59.0533 145.546 58.2C143.973 57.32 142.733 56.1067 141.826 54.56C140.946 52.9867 140.506 51.1867 140.506 49.16C140.506 47.08 140.946 45.2267 141.826 43.6C142.706 41.9733 143.933 40.6933 145.506 39.76C147.08 38.8267 148.906 38.36 150.986 38.36C153.013 38.36 154.786 38.8 156.306 39.68C157.826 40.56 159.013 41.76 159.866 43.28C160.746 44.7733 161.186 46.5067 161.186 48.48C161.186 48.7467 161.173 49.0533 161.146 49.4C161.146 49.72 161.12 50.0533 161.066 50.4H144.786V46.92H155.066C155.013 45.8 154.6 44.9067 153.826 44.24C153.08 43.5467 152.146 43.2 151.026 43.2C150.173 43.2 149.4 43.4 148.706 43.8C148.013 44.2 147.453 44.8 147.026 45.6C146.626 46.4 146.426 47.4133 146.426 48.64V49.84C146.426 50.7733 146.6 51.6 146.946 52.32C147.32 53.04 147.84 53.6 148.506 54C149.2 54.4 150.013 54.6 150.946 54.6C151.826 54.6 152.546 54.4267 153.106 54.08C153.693 53.7067 154.146 53.24 154.466 52.68H160.586C160.213 53.96 159.573 55.12 158.666 56.16C157.76 57.1733 156.653 57.9867 155.346 58.6C154.04 59.1867 152.6 59.48 151.026 59.48Z" fill="white"/>
<path d="M131.019 59V38.84H137.019V59H131.019ZM134.019 36.52C132.952 36.52 132.086 36.2133 131.419 35.6C130.752 34.9867 130.419 34.2133 130.419 33.28C130.419 32.32 130.752 31.5333 131.419 30.92C132.086 30.3067 132.952 30 134.019 30C135.112 30 135.992 30.3067 136.659 30.92C137.352 31.5333 137.699 32.32 137.699 33.28C137.699 34.2133 137.352 34.9867 136.659 35.6C135.992 36.2133 135.112 36.52 134.019 36.52Z" fill="white"/>
<path d="M109.68 59V31H128.28V35.84H115.68V42.64H125.6V47.32H115.68V59H109.68Z" fill="white"/>
</svg>
