<svg width="395" height="141" viewBox="0 0 395 141" fill="none" xmlns="http://www.w3.org/2000/svg">
<rect x="39.5" y="47.5" width="84" height="30" rx="2.5" stroke="white" stroke-width="3" stroke-linejoin="round"/>
<path d="M50 87V36C50 34.8954 50.8954 34 52 34H80" stroke="white" stroke-width="3" stroke-linecap="round" stroke-linejoin="round"/>
<circle cx="85.5" cy="63.5" r="4" stroke="white" stroke-width="3"/>
<path d="M85.5 29.5C87.7091 29.5 89.5 31.2909 89.5 33.5C89.5 35.7091 87.7091 37.5 85.5 37.5C83.2909 37.5 81.5 35.7091 81.5 33.5C81.5 31.2909 83.2909 29.5 85.5 29.5Z" stroke="white" stroke-width="3"/>
<path d="M85 68L85 104" stroke="white" stroke-width="3" stroke-linecap="round"/>
<circle cx="85.5" cy="109.5" r="4" stroke="white" stroke-width="3"/>
<circle cx="113.5" cy="97.5" r="4" stroke="white" stroke-width="3"/>
<path d="M54.1823 98.0608C54.7679 98.6466 54.768 99.5964 54.1823 100.182C53.5965 100.768 52.6468 100.768 52.061 100.182L47.0608 95.182C46.475 94.5962 46.475 93.6464 47.0608 93.0607C47.6466 92.4749 48.5963 92.4749 49.1821 93.0607L54.1823 98.0608Z" fill="white"/>
<path d="M49.182 100.189C48.5962 100.775 47.6464 100.775 47.0607 100.189C46.4749 99.6035 46.475 98.6537 47.0607 98.0679L52.0608 93.0678C52.6466 92.482 53.5964 92.482 54.1821 93.0678C54.7679 93.6535 54.7679 94.6033 54.1821 95.1891L49.182 100.189Z" fill="white"/>
<path d="M63.6214 55.4392C64.2072 54.8535 65.1567 54.8535 65.7425 55.4392C66.3279 56.0251 66.3282 56.9747 65.7425 57.5603L60.7425 62.5603C60.1567 63.146 59.2062 63.1461 58.6204 62.5603C58.5961 62.536 58.5744 62.5097 58.5521 62.4842L56.4388 60.3709C55.8531 59.7851 55.8531 58.8355 56.4388 58.2498C57.0245 57.664 57.9741 57.6641 58.5599 58.2498L59.6849 59.3738L63.6214 55.4392Z" fill="white"/>
<path d="M99.8864 72H114C114 80.2843 107.284 87 99 87H87" stroke="white" stroke-width="3" stroke-linecap="round" stroke-linejoin="round"/>
<path opacity="0.6" d="M58.7 98C56.4908 98 54.7 96.2091 54.7 94V32C54.7 29.7909 56.4908 28 58.7 28H97.2C99.4091 28 101.2 29.7909 101.2 32V36.1C101.2 38.3091 99.4091 40.1 97.2 40.1H73.7C71.4908 40.1 69.7 41.8909 69.7 44.1V53.1C69.7 55.3091 71.4908 57.1 73.7 57.1H90.5C92.7091 57.1 94.5 58.8909 94.5 61.1V64.8C94.5 67.0091 92.7091 68.8 90.5 68.8H73.7C71.4908 68.8 69.7 70.5909 69.7 72.8V94C69.7 96.2091 67.9091 98 65.7 98H58.7Z" fill="#5ED5BE"/>
<path opacity="0.6" d="M80.6951 104C78.4859 104 76.6951 102.209 76.6951 100V48.5C76.6951 46.2909 78.4859 44.5 80.6951 44.5H99.8151C104.632 44.5 108.627 45.35 111.8 47.05C115.03 48.6933 117.41 50.9033 118.94 53.68C120.527 56.4567 121.32 59.545 121.32 62.945C121.32 66.1183 120.555 69.0933 119.025 71.87C117.552 74.6467 115.228 76.885 112.055 78.585C108.882 80.285 104.773 81.135 99.7301 81.135H93.4451C91.2359 81.135 89.4451 82.9259 89.4451 85.135V100C89.4451 102.209 87.6542 104 85.4451 104H80.6951ZM109.941 104C108.38 104 106.962 103.092 106.308 101.674L95.3951 77.99H109.08L119.006 98.2394C120.309 100.897 118.374 104 115.415 104H109.941ZM89.4451 67.955C89.4451 70.1641 91.2359 71.955 93.4451 71.955H99.0501C102.223 71.955 104.547 71.19 106.02 69.66C107.55 68.13 108.315 66.0617 108.315 63.455C108.315 60.905 107.55 58.8933 106.02 57.42C104.547 55.89 102.223 55.125 99.0501 55.125H93.4451C91.2359 55.125 89.4451 56.9159 89.4451 59.125V67.955Z" fill="#8F97FF"/>
<path d="M147.68 85V57H166.28V61.84H153.68V68.64H163.6V73.32H153.68V85H147.68ZM169.019 85V64.84H175.019V85H169.019ZM172.019 62.52C170.952 62.52 170.086 62.2133 169.419 61.6C168.752 60.9867 168.419 60.2133 168.419 59.28C168.419 58.32 168.752 57.5333 169.419 56.92C170.086 56.3067 170.952 56 172.019 56C173.112 56 173.992 56.3067 174.659 56.92C175.352 57.5333 175.699 58.32 175.699 59.28C175.699 60.2133 175.352 60.9867 174.659 61.6C173.992 62.2133 173.112 62.52 172.019 62.52ZM189.026 85.48C186.946 85.48 185.12 85.0533 183.546 84.2C181.973 83.32 180.733 82.1067 179.826 80.56C178.946 78.9867 178.506 77.1867 178.506 75.16C178.506 73.08 178.946 71.2267 179.826 69.6C180.706 67.9733 181.933 66.6933 183.506 65.76C185.08 64.8267 186.906 64.36 188.986 64.36C191.013 64.36 192.786 64.8 194.306 65.68C195.826 66.56 197.013 67.76 197.866 69.28C198.746 70.7733 199.186 72.5067 199.186 74.48C199.186 74.7467 199.173 75.0533 199.146 75.4C199.146 75.72 199.12 76.0533 199.066 76.4H182.786V72.92H193.066C193.013 71.8 192.6 70.9067 191.826 70.24C191.08 69.5467 190.146 69.2 189.026 69.2C188.173 69.2 187.4 69.4 186.706 69.8C186.013 70.2 185.453 70.8 185.026 71.6C184.626 72.4 184.426 73.4133 184.426 74.64V75.84C184.426 76.7733 184.6 77.6 184.946 78.32C185.32 79.04 185.84 79.6 186.506 80C187.2 80.4 188.013 80.6 188.946 80.6C189.826 80.6 190.546 80.4267 191.106 80.08C191.693 79.7067 192.146 79.24 192.466 78.68H198.586C198.213 79.96 197.573 81.12 196.666 82.16C195.76 83.1733 194.653 83.9867 193.346 84.6C192.04 85.1867 190.6 85.48 189.026 85.48ZM202.398 85V56.2H208.398V85H202.398ZM221.369 85.48C219.583 85.48 217.956 85.0267 216.489 84.12C215.049 83.2133 213.903 81.9733 213.049 80.4C212.223 78.8 211.809 76.9867 211.809 74.96C211.809 72.9067 212.236 71.0933 213.089 69.52C213.943 67.92 215.103 66.6667 216.569 65.76C218.063 64.8267 219.716 64.36 221.529 64.36C222.916 64.36 224.129 64.6133 225.169 65.12C226.209 65.6 227.063 66.3067 227.729 67.24V56.2H233.729V85H228.409L227.729 82.4C227.329 82.96 226.836 83.48 226.249 83.96C225.689 84.4133 225.009 84.7733 224.209 85.04C223.409 85.3333 222.463 85.48 221.369 85.48ZM222.929 80.24C223.916 80.24 224.783 80.0133 225.529 79.56C226.303 79.1067 226.889 78.48 227.289 77.68C227.716 76.88 227.929 75.96 227.929 74.92C227.929 73.88 227.716 72.96 227.289 72.16C226.889 71.36 226.303 70.7333 225.529 70.28C224.783 69.8267 223.916 69.6 222.929 69.6C221.969 69.6 221.103 69.8267 220.329 70.28C219.583 70.7333 218.996 71.36 218.569 72.16C218.143 72.96 217.929 73.8667 217.929 74.88C217.929 75.92 218.143 76.8533 218.569 77.68C218.996 78.48 219.583 79.1067 220.329 79.56C221.103 80.0133 221.969 80.24 222.929 80.24ZM237.813 85V57H248.693C250.959 57 252.839 57.4 254.333 58.2C255.853 58.9733 256.973 60.0133 257.693 61.32C258.439 62.6267 258.813 64.08 258.813 65.68C258.813 67.1733 258.453 68.5733 257.733 69.88C257.039 71.1867 255.946 72.24 254.453 73.04C252.959 73.84 251.026 74.24 248.653 74.24H243.813V85H237.813ZM252.253 85L246.613 72.76H253.053L259.053 85H252.253ZM243.813 69.92H248.333C249.826 69.92 250.919 69.56 251.613 68.84C252.333 68.12 252.693 67.1467 252.693 65.92C252.693 64.72 252.333 63.7733 251.613 63.08C250.919 62.36 249.826 62 248.333 62H243.813V69.92ZM269.758 85.48C268.078 85.48 266.651 85.1333 265.478 84.44C264.331 83.7467 263.451 82.7333 262.838 81.4C262.251 80.04 261.958 78.3867 261.958 76.44V64.84H267.958V75.84C267.958 77.3333 268.264 78.48 268.878 79.28C269.491 80.0533 270.478 80.44 271.838 80.44C272.664 80.44 273.398 80.2533 274.038 79.88C274.704 79.5067 275.211 78.96 275.558 78.24C275.931 77.52 276.118 76.64 276.118 75.6V64.84H282.118V85H276.878L276.398 81.8C275.811 82.8933 274.958 83.7867 273.838 84.48C272.718 85.1467 271.358 85.48 269.758 85.48ZM286.114 85V56.2H292.114V85H286.114ZM306.045 85.48C303.965 85.48 302.138 85.0533 300.565 84.2C298.992 83.32 297.752 82.1067 296.845 80.56C295.965 78.9867 295.525 77.1867 295.525 75.16C295.525 73.08 295.965 71.2267 296.845 69.6C297.725 67.9733 298.952 66.6933 300.525 65.76C302.098 64.8267 303.925 64.36 306.005 64.36C308.032 64.36 309.805 64.8 311.325 65.68C312.845 66.56 314.032 67.76 314.885 69.28C315.765 70.7733 316.205 72.5067 316.205 74.48C316.205 74.7467 316.192 75.0533 316.165 75.4C316.165 75.72 316.138 76.0533 316.085 76.4H299.805V72.92H310.085C310.032 71.8 309.618 70.9067 308.845 70.24C308.098 69.5467 307.165 69.2 306.045 69.2C305.192 69.2 304.418 69.4 303.725 69.8C303.032 70.2 302.472 70.8 302.045 71.6C301.645 72.4 301.445 73.4133 301.445 74.64V75.84C301.445 76.7733 301.618 77.6 301.965 78.32C302.338 79.04 302.858 79.6 303.525 80C304.218 80.4 305.032 80.6 305.965 80.6C306.845 80.6 307.565 80.4267 308.125 80.08C308.712 79.7067 309.165 79.24 309.485 78.68H315.605C315.232 79.96 314.592 81.12 313.685 82.16C312.778 83.1733 311.672 83.9867 310.365 84.6C309.058 85.1867 307.618 85.48 306.045 85.48ZM327.817 85.48C325.924 85.48 324.284 85.1867 322.897 84.6C321.537 83.9867 320.457 83.16 319.657 82.12C318.884 81.08 318.444 79.9067 318.337 78.6H324.297C324.404 79.0533 324.591 79.4667 324.857 79.84C325.151 80.1867 325.537 80.4667 326.017 80.68C326.524 80.8667 327.084 80.96 327.697 80.96C328.364 80.96 328.897 80.88 329.297 80.72C329.724 80.5333 330.044 80.2933 330.257 80C330.471 79.7067 330.577 79.4 330.577 79.08C330.577 78.5733 330.417 78.1867 330.097 77.92C329.804 77.6533 329.364 77.44 328.777 77.28C328.191 77.0933 327.484 76.92 326.657 76.76C325.697 76.5467 324.737 76.3067 323.777 76.04C322.844 75.7467 322.004 75.3867 321.257 74.96C320.537 74.5333 319.951 73.9867 319.497 73.32C319.071 72.6267 318.857 71.7867 318.857 70.8C318.857 69.6 319.191 68.52 319.857 67.56C320.524 66.5733 321.484 65.8 322.737 65.24C323.991 64.6533 325.511 64.36 327.297 64.36C329.831 64.36 331.817 64.92 333.257 66.04C334.697 67.16 335.551 68.6667 335.817 70.56H330.217C330.057 70.0267 329.724 69.6267 329.217 69.36C328.711 69.0667 328.071 68.92 327.297 68.92C326.417 68.92 325.751 69.0667 325.297 69.36C324.844 69.6533 324.617 70.04 324.617 70.52C324.617 70.84 324.764 71.1333 325.057 71.4C325.377 71.64 325.831 71.8533 326.417 72.04C327.004 72.2267 327.724 72.4133 328.577 72.6C330.204 72.9467 331.604 73.32 332.777 73.72C333.977 74.12 334.911 74.7067 335.577 75.48C336.244 76.2267 336.564 77.32 336.537 78.76C336.564 80.0667 336.217 81.2267 335.497 82.24C334.804 83.2533 333.804 84.0533 332.497 84.64C331.191 85.2 329.631 85.48 327.817 85.48Z" fill="white"/>
</svg>
